ply
format ascii 1.0
comment Created by Blender 2.69 (sub 0) - www.blender.org, source file: ''
element vertex 24
property float x
property float y
property float z
property float nx
property float ny
property float nz
property float s
property float t
element face 12
property list uchar uint vertex_indices
end_header
-1.422430 -1.998456 0.965890 -1.000000 0.000000 0.000000 0.000000 0.000000
-1.422430 0.001544 0.965890 -1.000000 0.000000 0.000000 1.000000 0.000000
-1.422430 0.001544 -1.034110 -1.000000 0.000000 0.000000 1.000000 1.000000
-1.422430 0.001544 0.965890 0.000000 1.000000 -0.000000 0.000000 0.000000
0.577570 0.001544 0.965890 0.000000 1.000000 -0.000000 1.000000 0.000000
0.577570 0.001544 -1.034110 0.000000 1.000000 -0.000000 1.000000 1.000000
0.577570 0.001544 0.965890 1.000000 0.000000 0.000000 0.000000 0.000000
0.577570 -1.998456 0.965890 1.000000 0.000000 0.000000 1.000000 0.000000
0.577570 -1.998456 -1.034110 1.000000 0.000000 0.000000 1.000000 1.000000
-1.422430 -1.998456 0.965890 -0.000000 -1.000000 0.000000 1.000000 0.000000
-1.422430 -1.998456 -1.034110 -0.000000 -1.000000 0.000000 1.000000 1.000000
0.577570 -1.998456 0.965890 -0.000000 -1.000000 0.000000 0.000000 0.000000
-1.422430 -1.998456 -1.034110 -0.000000 -0.000000 -1.000000 0.000000 0.000000
-1.422430 0.001544 -1.034110 -0.000000 -0.000000 -1.000000 1.000000 0.000000
0.577570 0.001544 -1.034110 -0.000000 -0.000000 -1.000000 1.000000 1.000000
0.577570 -1.998456 0.965890 -0.000000 0.000000 1.000000 0.000000 0.000000
0.577570 0.001544 0.965890 -0.000000 0.000000 1.000000 1.000000 0.000000
-1.422430 0.001544 0.965890 -0.000000 0.000000 1.000000 1.000000 1.000000
-1.422430 -1.998456 -1.034110 -1.000000 -0.000000 -0.000000 0.000000 1.000000
-1.422430 0.001544 -1.034110 0.000000 1.000000 0.000000 0.000000 1.000000
0.577570 0.001544 -1.034110 1.000000 -0.000000 0.000000 0.000000 1.000000
0.577570 -1.998456 -1.034110 0.000000 -1.000000 0.000000 0.000000 1.000000
0.577570 -1.998456 -1.034110 0.000000 -0.000000 -1.000000 0.000000 1.000000
-1.422430 -1.998456 0.965890 0.000000 0.000000 1.000000 0.000000 1.000000
3 0 1 2
3 3 4 5
3 6 7 8
3 9 10 11
3 12 13 14
3 15 16 17
3 18 0 2
3 19 3 5
3 20 6 8
3 11 10 21
3 22 12 14
3 23 15 17
